PathFileType	4	(X/Y/Z)	TRC_missing_Z7.trc
DataRate	CameraRate	NumFrames	NumMarkers	Units	OrigDataRate	OrigDataStartFrame	OrigNumFrames
100.0	100.0	6	37	mm	100.0	327	2609	
Frame#	Time	T10			C7			CLAV			RACR1			LACR1			RPSI			LPSI			RASI			LASI			LTH2			LTH3			LTH1			RTH2			RTH3			RTH1			RLFC			RMFC			RTB1			RTB3			RTB2			LLFC			LMFC			LTB1			LTB3			LTB2			LLMAL			LCAL			LMMAL			RLMAL			RMMAL			RCAL			RMT5			RMT1			RToe			LMT5			LMT1			LToe			
		X1	Y1	Z1	X2	Y2	Z2	X3	Y3	Z3	X4	Y4	Z4	X5	Y5	Z5	X6	Y6	Z6	X7	Y7	X8	Y8	Z8	X9	Y9	Z9	X10	Y10	Z10	X11	Y11	Z11	X12	Y12	Z12	X13	Y13	Z13	X14	Y14	Z14	X15	Y15	Z15	X16	Y16	Z16	X17	Y17	Z17	X18	Y18	Z18	X19	Y19	Z19	X20	Y20	Z20	X21	Y21	Z21	X22	Y22	Z22	X23	Y23	Z23	X24	Y24	Z24	X25	Y25	Z25	X26	Y26	Z26	X27	Y27	Z27	X28	Y28	Z28	X29	Y29	Z29	X30	Y30	Z30	X31	Y31	Z31	X32	Y32	Z32	X33	Y33	Z33	X34	Y34	Z34	X35	Y35	Z35	X36	Y36	Z36	X37	Y37	Z37	
327	3.26	765.38666	1222.4193	-585.89069	758.4743	1473.3258	-448.86496	760.02942	1309.8849	-358.36688	598.22552	1420.5834	-430.88199	934.00104	1412.8716	-424.92899	697.73468	1007.7725	-667.02063	785.23071	1018.8853	-663.15747	621.32526	960.98724	-440.30118	875.05121	961.47009	-430.17691	919.43457	756.06134	-525.37024	900.99146	690.14258	-530.3504	899.81427	827.60156	-463.50647	599.9176	737.7879	-364.18469	558.67316	785.25427	-423.31668	633.2323	841.03857	-401.88623	591.47028	519.64795	-349.76868				630.73151	420.57455	-285.61072	613.19238	340.22415	-305.8486	637.9472	289.95538	-291.85812	877.19244	499.09106	-650.15619				821.85132	381.38907	-649.91565	848.47565	323.27545	-692.17804	804.27203	273.20914	-701.77991	816.05359	104.77326	-822.86456	770.29425	78.233437	-887.59039				636.22522	91.122612	-327.3212				686.99988	41.625671	-378.40292	628.15131	67.833817	-215.25348	698.27075	82.712746	-187.5713				837.87933	39.180672	-716.1759	765.51013	52.003098	-685.34387			
328	3.27	764.54431	1221.6232	-585.19604	757.4317	1472.6868	-448.50809	759.06085	1309.2865	-357.81866	597.1745	1419.757	-430.69678	932.93024	1412.3297	-424.40854	696.34521	1007.1165	-665.92224	783.85907	1018.3192	-662.28375	620.64856	960.27216	-439.04825	874.46729	960.65906	-429.51141	921.72021	756.18512	-527.86902	900.39197	689.70746	-532.43646	899.16711	826.58691	-463.95764	600.67975	736.47449	-363.3082	558.87531	783.99921	-421.89459	633.25635	840.03772	-400.55411	592.79041	518.45081	-348.76581				632.47925	420.00974	-283.24704	614.59576	339.0993	-301.95264	639.39423	288.98135	-287.26279	876.75861	499.48584	-653.65265				821.70471	381.62381	-654.67236	848.46576	324.09573	-697.62854	804.3136	274.01022	-707.6684	816.2373	106.74795	-830.52765	770.38513	81.212746	-895.62646				636.98364	89.22821	-319.37167				687.30402	38.804428	-370.22949	629.75018	67.736298	-206.75938	699.9928	82.87027	-179.71194				837.77881	39.113998	-724.66345	765.54944	51.982399	-693.70605			
329	3.28	763.63928	1220.8448	-584.37927	756.32794	1472.0742	-448.04254	758.05096	1308.7172	-357.15308	596.06659	1418.9421	-430.35352	931.80994	1411.8217	-423.80829	694.92175	1006.4803	-664.68835	782.45886	1017.746	-661.27161	619.93341	959.5824	-437.65714	873.83862	959.85541	-428.71542	924.00525	756.36603	-530.1889	899.81128	689.22888	-534.29169	898.47943	825.57825	-464.22192	601.48596	735.15448	-362.26276	559.09607	782.7525	-420.29111	633.29474	839.03424	-399.05301	594.06598	517.2157	-347.76141				634.24908	419.28027	-281.29312	616.01813	337.93835	-298.72324	640.87469	287.96194	-283.56705	876.30463	499.82272	-656.79034				821.56653	381.80365	-659.12518	848.47369	324.90454	-702.81769	804.38763	274.80124	-713.33478	816.4967	108.82227	-838.10498	770.53912	84.355537	-903.57727				637.76794	87.593163	-313.1593				687.6134	36.493839	-363.99991	631.39154	67.435921	-200.20689	701.78607	82.676704	-173.75041				837.69037	39.03027	-733.16168	765.61292	51.9487	-702.06482			
330	3.29	762.67487	1220.0914	-583.44141	755.16724	1471.4951	-447.46835	757.00049	1308.1842	-356.37	594.90527	1418.1484	-429.8541	930.64404	1411.3525	-423.12454	693.46698	1005.8715	-663.32147	781.03265	1017.1709	-660.12274	619.17865	958.92822	-436.13074	873.1629	959.06525	-427.79074	926.09143	756.53558	-532.19727	899.24225	688.70447	-535.90424	897.74731	824.58185	-464.29083	602.32965	733.85437	-361.03754	559.3291	781.53595	-418.50195	633.34277	838.04895	-397.38287	595.29236	515.96246	-346.73978				636.0318	418.39734	-279.73196	617.45123	336.74432	-296.14798	642.37946	286.89374	-280.75464	875.83698	500.09512	-659.54962				821.44611	381.92361	-663.25317	848.50665	325.69894	-707.72327	804.50446	275.57922	-718.75677	816.84064	111.00018	-845.57446	770.763	87.672668	-911.41156				638.57068	86.188187	-308.67337				687.92145	34.658531	-359.70102	633.04852	66.911682	-195.57018	703.62561	82.111595	-169.64946				837.61407	38.929817	-741.67883	765.70123	51.897625	-710.42676			
331	3.3	761.65448	1219.3701	-582.38452	753.95471	1470.9562	-446.78625	755.91071	1307.6949	-355.47018	593.69458	1417.3862	-429.20126	929.43646	1410.927	-422.35468	691.9834	1005.2977	-661.82574	779.58319	1016.5992	-658.84045	618.38318	958.31964	-434.47311	872.43817	958.29413	-426.74066	927.81989	756.63477	-533.78668	898.67651	688.13452	-537.25879	896.96735	823.60455	-464.15756	603.20135	732.5968	-359.6283	559.56628	780.36871	-416.52817	633.39374	837.1001	-395.54715	596.46527	514.70905	-345.69241				637.81744	417.37357	-278.54684	618.88623	335.52054	-294.20929	643.89862	285.77487	-278.7998	875.36316	500.297	-661.91077				821.35358	381.97903	-667.03412	848.57214	326.47626	-712.32147	804.67487	276.34149	-723.90942	817.27783	113.28569	-852.90906	771.06378	91.175934	-919.0918				639.38239	84.984818	-305.87357				688.22015	33.259205	-357.28397	634.69299	66.155258	-192.7903	705.48438	81.170052	-167.34055				837.54926	38.814148	-750.22278	765.81372	51.824974	-718.79956			
332	3.31	760.58215	1218.688	-581.21173	752.69531	1470.4634	-445.99799	754.78333	1307.2566	-354.45541	592.43921	1416.6653	-428.39893	928.19189	1410.5504	-421.49677	690.47363	1004.7671	-660.20599	778.11279	1016.037	-657.4295	617.5459	957.76642	-432.68997	871.66272	957.5484	-425.56992	929.10376	756.62744	-534.89703	898.10437	687.52234	-538.3374	896.13617	822.65375	-463.81717	604.08862	731.40063	-358.03745	559.79803	779.26727	-414.37631	633.43933	836.20386	-393.55246	597.58081	513.47058	-344.61862				639.59485	416.22266	-277.72198	620.31335	334.2706	-292.88553	645.42108	284.60544	-277.66824	874.89166	500.42279	-663.85406				821.29919	381.96625	-670.44458	848.67773	327.23404	-716.58667	804.90948	277.08606	-728.76514	817.81653	115.68283	-860.07654	771.44879	94.878021	-926.57428				640.19238	83.956123	-304.69174				688.50012	32.253708	-356.66672	636.29608	65.170837	-191.77768	707.33484	79.862793	-166.72659				837.49463	38.68623	-758.80084	765.94891	51.727207	-727.19128			
